<svg xmlns="http://www.w3.org/2000/svg" width="87.785" height="109.023" viewBox="0 0 87.785 109.023"><path d="M79.947,45.994c-4.329,0-7.838,3.813-7.838,8.517H70.542V47.7c0-4.7-3.509-8.517-7.838-8.517s-7.838,3.813-7.838,8.517v6.814H53.3V10.221C53.3,4.576,49.087,0,43.892,0s-9.406,4.576-9.406,10.221V54.511H31.828L18.162,16.7c-1.9-5.254-7.359-7.84-12.193-5.776s-7.214,8-5.315,13.25L15.3,64.71l-6.092,5.3A9.022,9.022,0,0,0,7.3,80.883l12.541,23.849a7.75,7.75,0,0,0,6.805,4.291H73.677a8,8,0,0,0,7.63-6.566L87.577,73.5a9.216,9.216,0,0,0,.208-1.951V54.511C87.785,49.807,84.276,45.994,79.947,45.994Z" fill="#409fb5"/></svg>