<svg xmlns="http://www.w3.org/2000/svg" width="275" height="275" viewBox="0 0 275 275"><g transform="translate(-1153 -2314)"><rect width="12" height="12" transform="translate(1153 2314)" fill="#409fb5"/><rect width="12" height="9" transform="translate(1153 2326)" fill="#409fb5"/><rect width="12" height="12" transform="translate(1153 2335)" fill="#409fb5"/><rect width="12" height="12" transform="translate(1153 2347)" fill="#409fb5"/><rect width="12" height="10" transform="translate(1153 2359)" fill="#409fb5"/><rect width="12" height="11" transform="translate(1153 2369)" fill="#409fb5"/><rect width="12" height="12" transform="translate(1153 2380)" fill="#409fb5"/><rect width="12" height="10" transform="translate(1153 2413)" fill="#409fb5"/><rect width="12" height="10" transform="translate(1153 2446)" fill="#409fb5"/><rect width="12" height="12" transform="translate(1153 2456)" fill="#409fb5"/><rect width="12" height="11" transform="translate(1153 2468)" fill="#409fb5"/><rect width="12" height="10" transform="translate(1153 2479)" fill="#409fb5"/><rect width="12" height="9" transform="translate(1153 2513)" fill="#409fb5"/><rect width="12" height="12" transform="translate(1153 2522)" fill="#409fb5"/><rect width="12" height="12" transform="translate(1153 2534)" fill="#409fb5"/><rect width="12" height="9" transform="translate(1153 2546)" fill="#409fb5"/><rect width="12" height="12" transform="translate(1153 2555)" fill="#409fb5"/><rect width="12" height="12" transform="translate(1153 2567)" fill="#409fb5"/><rect width="12" height="10" transform="translate(1153 2579)" fill="#409fb5"/><rect width="9" height="12" transform="translate(1165 2314)" fill="#409fb5"/><rect width="9" height="12" transform="translate(1165 2380)" fill="#409fb5"/><rect width="9" height="12" transform="translate(1165 2423)" fill="#409fb5"/><rect width="9" height="11" transform="translate(1165 2435)" fill="#409fb5"/><rect width="9" height="10" transform="translate(1165 2446)" fill="#409fb5"/><rect width="9" height="12" transform="translate(1165 2456)" fill="#409fb5"/><rect width="9" height="11" transform="translate(1165 2468)" fill="#409fb5"/><rect width="9" height="10" transform="translate(1165 2479)" fill="#409fb5"/><rect width="9" height="9" transform="translate(1165 2513)" fill="#409fb5"/><rect width="9" height="10" transform="translate(1165 2579)" fill="#409fb5"/><rect width="12" height="12" transform="translate(1174 2314)" fill="#409fb5"/><rect width="12" height="12" transform="translate(1174 2335)" fill="#409fb5"/><rect width="12" height="12" transform="translate(1174 2347)" fill="#409fb5"/><rect width="12" height="10" transform="translate(1174 2359)" fill="#409fb5"/><rect width="12" height="12" transform="translate(1174 2380)" fill="#409fb5"/><rect width="12" height="11" transform="translate(1174 2402)" fill="#409fb5"/><rect width="12" height="10" transform="translate(1174 2413)" fill="#409fb5"/><rect width="12" height="12" transform="translate(1174 2423)" fill="#409fb5"/><rect width="12" height="10" transform="translate(1174 2446)" fill="#409fb5"/><rect width="12" height="11" transform="translate(1174 2468)" fill="#409fb5"/><rect width="12" height="9" transform="translate(1174 2513)" fill="#409fb5"/><rect width="12" height="12" transform="translate(1174 2534)" fill="#409fb5"/><rect width="12" height="9" transform="translate(1174 2546)" fill="#409fb5"/><rect width="12" height="12" transform="translate(1174 2555)" fill="#409fb5"/><rect width="12" height="10" transform="translate(1174 2579)" fill="#409fb5"/><rect width="12" height="12" transform="translate(1186 2314)" fill="#409fb5"/><rect width="12" height="12" transform="translate(1186 2335)" fill="#409fb5"/><rect width="12" height="12" transform="translate(1186 2347)" fill="#409fb5"/><rect width="12" height="10" transform="translate(1186 2359)" fill="#409fb5"/><rect width="12" height="12" transform="translate(1186 2380)" fill="#409fb5"/><rect width="12" height="10" transform="translate(1186 2413)" fill="#409fb5"/><rect width="12" height="12" transform="translate(1186 2423)" fill="#409fb5"/><rect width="12" height="11" transform="translate(1186 2435)" fill="#409fb5"/><rect width="12" height="11" transform="translate(1186 2468)" fill="#409fb5"/><rect width="12" height="10" transform="translate(1186 2479)" fill="#409fb5"/><rect width="12" height="12" transform="translate(1186 2489)" fill="#409fb5"/><rect width="12" height="9" transform="translate(1186 2513)" fill="#409fb5"/><rect width="12" height="12" transform="translate(1186 2534)" fill="#409fb5"/><rect width="12" height="9" transform="translate(1186 2546)" fill="#409fb5"/><rect width="12" height="12" transform="translate(1186 2555)" fill="#409fb5"/><rect width="12" height="10" transform="translate(1186 2579)" fill="#409fb5"/><rect width="10" height="12" transform="translate(1198 2314)" fill="#409fb5"/><rect width="10" height="12" transform="translate(1198 2335)" fill="#409fb5"/><rect width="10" height="12" transform="translate(1198 2347)" fill="#409fb5"/><rect width="10" height="10" transform="translate(1198 2359)" fill="#409fb5"/><rect width="10" height="12" transform="translate(1198 2380)" fill="#409fb5"/><rect width="10" height="12" transform="translate(1198 2423)" fill="#409fb5"/><rect width="10" height="11" transform="translate(1198 2468)" fill="#409fb5"/><rect width="10" height="10" transform="translate(1198 2479)" fill="#409fb5"/><rect width="10" height="9" transform="translate(1198 2513)" fill="#409fb5"/><rect width="10" height="12" transform="translate(1198 2534)" fill="#409fb5"/><rect width="10" height="9" transform="translate(1198 2546)" fill="#409fb5"/><rect width="10" height="12" transform="translate(1198 2555)" fill="#409fb5"/><rect width="10" height="10" transform="translate(1198 2579)" fill="#409fb5"/><rect width="11" height="12" transform="translate(1208 2314)" fill="#409fb5"/><rect width="11" height="12" transform="translate(1208 2380)" fill="#409fb5"/><rect width="11" height="10" transform="translate(1208 2413)" fill="#409fb5"/><rect width="11" height="12" transform="translate(1208 2456)" fill="#409fb5"/><rect width="11" height="10" transform="translate(1208 2479)" fill="#409fb5"/><rect width="11" height="9" transform="translate(1208 2513)" fill="#409fb5"/><rect width="11" height="10" transform="translate(1208 2579)" fill="#409fb5"/><rect width="12" height="12" transform="translate(1219 2314)" fill="#409fb5"/><rect width="12" height="9" transform="translate(1219 2326)" fill="#409fb5"/><rect width="12" height="12" transform="translate(1219 2335)" fill="#409fb5"/><rect width="12" height="12" transform="translate(1219 2347)" fill="#409fb5"/><rect width="12" height="10" transform="translate(1219 2359)" fill="#409fb5"/><rect width="12" height="11" transform="translate(1219 2369)" fill="#409fb5"/><rect width="12" height="12" transform="translate(1219 2380)" fill="#409fb5"/><rect width="12" height="11" transform="translate(1219 2402)" fill="#409fb5"/><rect width="12" height="12" transform="translate(1219 2423)" fill="#409fb5"/><rect width="12" height="10" transform="translate(1219 2446)" fill="#409fb5"/><rect width="12" height="11" transform="translate(1219 2468)" fill="#409fb5"/><rect width="12" height="12" transform="translate(1219 2489)" fill="#409fb5"/><rect width="12" height="9" transform="translate(1219 2513)" fill="#409fb5"/><rect width="12" height="12" transform="translate(1219 2522)" fill="#409fb5"/><rect width="12" height="12" transform="translate(1219 2534)" fill="#409fb5"/><rect width="12" height="9" transform="translate(1219 2546)" fill="#409fb5"/><rect width="12" height="12" transform="translate(1219 2555)" fill="#409fb5"/><rect width="12" height="12" transform="translate(1219 2567)" fill="#409fb5"/><rect width="12" height="10" transform="translate(1219 2579)" fill="#409fb5"/><rect width="10" height="11" transform="translate(1231 2402)" fill="#409fb5"/><rect width="10" height="10" transform="translate(1231 2413)" fill="#409fb5"/><rect width="10" height="12" transform="translate(1231 2423)" fill="#409fb5"/><rect width="10" height="10" transform="translate(1231 2446)" fill="#409fb5"/><rect width="10" height="12" transform="translate(1231 2456)" fill="#409fb5"/><rect width="10" height="11" transform="translate(1231 2468)" fill="#409fb5"/><rect width="10" height="10" transform="translate(1231 2479)" fill="#409fb5"/><rect width="11" height="12" transform="translate(1241 2314)" fill="#409fb5"/><rect width="11" height="9" transform="translate(1241 2326)" fill="#409fb5"/><rect width="11" height="12" transform="translate(1241 2335)" fill="#409fb5"/><rect width="11" height="10" transform="translate(1241 2359)" fill="#409fb5"/><rect width="11" height="11" transform="translate(1241 2369)" fill="#409fb5"/><rect width="11" height="12" transform="translate(1241 2380)" fill="#409fb5"/><rect width="11" height="10" transform="translate(1241 2392)" fill="#409fb5"/><rect width="11" height="11" transform="translate(1241 2402)" fill="#409fb5"/><rect width="11" height="12" transform="translate(1241 2423)" fill="#409fb5"/><rect width="11" height="11" transform="translate(1241 2435)" fill="#409fb5"/><rect width="11" height="10" transform="translate(1241 2446)" fill="#409fb5"/><rect width="11" height="12" transform="translate(1241 2456)" fill="#409fb5"/><rect width="11" height="10" transform="translate(1241 2479)" fill="#409fb5"/><rect width="11" height="12" transform="translate(1241 2501)" fill="#409fb5"/><rect width="11" height="9" transform="translate(1241 2513)" fill="#409fb5"/><rect width="11" height="12" transform="translate(1241 2555)" fill="#409fb5"/><rect width="10" height="12" transform="translate(1252 2314)" fill="#409fb5"/><rect width="10" height="9" transform="translate(1252 2326)" fill="#409fb5"/><rect width="10" height="10" transform="translate(1252 2392)" fill="#409fb5"/><rect width="10" height="12" transform="translate(1252 2423)" fill="#409fb5"/><rect width="10" height="11" transform="translate(1252 2435)" fill="#409fb5"/><rect width="10" height="12" transform="translate(1252 2456)" fill="#409fb5"/><rect width="10" height="11" transform="translate(1252 2468)" fill="#409fb5"/><rect width="10" height="12" transform="translate(1252 2489)" fill="#409fb5"/><rect width="10" height="9" transform="translate(1252 2513)" fill="#409fb5"/><rect width="10" height="10" transform="translate(1252 2579)" fill="#409fb5"/><rect width="12" height="12" transform="translate(1262 2314)" fill="#409fb5"/><rect width="12" height="9" transform="translate(1262 2326)" fill="#409fb5"/><rect width="12" height="12" transform="translate(1262 2347)" fill="#409fb5"/><rect width="12" height="11" transform="translate(1262 2369)" fill="#409fb5"/><rect width="12" height="12" transform="translate(1262 2380)" fill="#409fb5"/><rect width="12" height="10" transform="translate(1262 2413)" fill="#409fb5"/><rect width="12" height="10" transform="translate(1262 2446)" fill="#409fb5"/><rect width="12" height="12" transform="translate(1262 2456)" fill="#409fb5"/><rect width="12" height="12" transform="translate(1262 2501)" fill="#409fb5"/><rect width="12" height="9" transform="translate(1262 2513)" fill="#409fb5"/><rect width="12" height="12" transform="translate(1262 2522)" fill="#409fb5"/><rect width="12" height="12" transform="translate(1262 2555)" fill="#409fb5"/><rect width="12" height="12" transform="translate(1262 2567)" fill="#409fb5"/><rect width="12" height="10" transform="translate(1262 2579)" fill="#409fb5"/><rect width="11" height="12" transform="translate(1274 2314)" fill="#409fb5"/><rect width="11" height="12" transform="translate(1274 2347)" fill="#409fb5"/><rect width="11" height="11" transform="translate(1274 2369)" fill="#409fb5"/><rect width="11" height="10" transform="translate(1274 2392)" fill="#409fb5"/><rect width="11" height="11" transform="translate(1274 2402)" fill="#409fb5"/><rect width="11" height="12" transform="translate(1274 2456)" fill="#409fb5"/><rect width="11" height="10" transform="translate(1274 2479)" fill="#409fb5"/><rect width="11" height="12" transform="translate(1274 2489)" fill="#409fb5"/><rect width="11" height="12" transform="translate(1274 2501)" fill="#409fb5"/><rect width="11" height="12" transform="translate(1274 2522)" fill="#409fb5"/><rect width="11" height="12" transform="translate(1274 2567)" fill="#409fb5"/><rect width="10" height="9" transform="translate(1285 2326)" fill="#409fb5"/><rect width="10" height="12" transform="translate(1285 2335)" fill="#409fb5"/><rect width="10" height="11" transform="translate(1285 2369)" fill="#409fb5"/><rect width="10" height="12" transform="translate(1285 2380)" fill="#409fb5"/><rect width="10" height="10" transform="translate(1285 2392)" fill="#409fb5"/><rect width="10" height="12" transform="translate(1285 2456)" fill="#409fb5"/><rect width="10" height="11" transform="translate(1285 2468)" fill="#409fb5"/><rect width="10" height="12" transform="translate(1285 2489)" fill="#409fb5"/><rect width="10" height="12" transform="translate(1285 2501)" fill="#409fb5"/><rect width="10" height="9" transform="translate(1285 2513)" fill="#409fb5"/><rect width="10" height="12" transform="translate(1285 2522)" fill="#409fb5"/><rect width="10" height="9" transform="translate(1285 2546)" fill="#409fb5"/><rect width="10" height="12" transform="translate(1285 2567)" fill="#409fb5"/><rect width="10" height="10" transform="translate(1285 2579)" fill="#409fb5"/><rect width="12" height="12" transform="translate(1295 2347)" fill="#409fb5"/><rect width="12" height="11" transform="translate(1295 2369)" fill="#409fb5"/><rect width="12" height="11" transform="translate(1295 2402)" fill="#409fb5"/><rect width="12" height="10" transform="translate(1295 2446)" fill="#409fb5"/><rect width="12" height="12" transform="translate(1295 2489)" fill="#409fb5"/><rect width="12" height="12" transform="translate(1295 2501)" fill="#409fb5"/><rect width="12" height="9" transform="translate(1295 2513)" fill="#409fb5"/><rect width="12" height="9" transform="translate(1295 2546)" fill="#409fb5"/><rect width="12" height="10" transform="translate(1295 2579)" fill="#409fb5"/><rect width="11" height="12" transform="translate(1307 2314)" fill="#409fb5"/><rect width="11" height="10" transform="translate(1307 2359)" fill="#409fb5"/><rect width="11" height="12" transform="translate(1307 2380)" fill="#409fb5"/><rect width="11" height="10" transform="translate(1307 2392)" fill="#409fb5"/><rect width="11" height="11" transform="translate(1307 2402)" fill="#409fb5"/><rect width="11" height="12" transform="translate(1307 2456)" fill="#409fb5"/><rect width="11" height="12" transform="translate(1307 2489)" fill="#409fb5"/><rect width="11" height="12" transform="translate(1307 2501)" fill="#409fb5"/><rect width="11" height="9" transform="translate(1307 2513)" fill="#409fb5"/><rect width="11" height="12" transform="translate(1307 2522)" fill="#409fb5"/><rect width="11" height="12" transform="translate(1307 2555)" fill="#409fb5"/><rect width="11" height="12" transform="translate(1307 2567)" fill="#409fb5"/><rect width="11" height="10" transform="translate(1307 2579)" fill="#409fb5"/><rect width="10" height="9" transform="translate(1318 2326)" fill="#409fb5"/><rect width="10" height="12" transform="translate(1318 2347)" fill="#409fb5"/><rect width="10" height="10" transform="translate(1318 2392)" fill="#409fb5"/><rect width="10" height="10" transform="translate(1318 2413)" fill="#409fb5"/><rect width="10" height="12" transform="translate(1318 2423)" fill="#409fb5"/><rect width="10" height="11" transform="translate(1318 2435)" fill="#409fb5"/><rect width="10" height="12" transform="translate(1318 2456)" fill="#409fb5"/><rect width="10" height="12" transform="translate(1318 2489)" fill="#409fb5"/><rect width="10" height="12" transform="translate(1318 2534)" fill="#409fb5"/><rect width="10" height="12" transform="translate(1318 2567)" fill="#409fb5"/><rect width="12" height="12" transform="translate(1328 2314)" fill="#409fb5"/><rect width="12" height="12" transform="translate(1328 2335)" fill="#409fb5"/><rect width="12" height="10" transform="translate(1328 2359)" fill="#409fb5"/><rect width="12" height="12" transform="translate(1328 2380)" fill="#409fb5"/><rect width="12" height="10" transform="translate(1328 2392)" fill="#409fb5"/><rect width="12" height="10" transform="translate(1328 2413)" fill="#409fb5"/><rect width="12" height="10" transform="translate(1328 2446)" fill="#409fb5"/><rect width="12" height="12" transform="translate(1328 2456)" fill="#409fb5"/><rect width="12" height="10" transform="translate(1328 2479)" fill="#409fb5"/><rect width="12" height="12" transform="translate(1328 2489)" fill="#409fb5"/><rect width="12" height="12" transform="translate(1328 2501)" fill="#409fb5"/><rect width="12" height="9" transform="translate(1328 2513)" fill="#409fb5"/><rect width="12" height="12" transform="translate(1328 2522)" fill="#409fb5"/><rect width="12" height="12" transform="translate(1328 2534)" fill="#409fb5"/><rect width="12" height="9" transform="translate(1328 2546)" fill="#409fb5"/><rect width="12" height="11" transform="translate(1340 2402)" fill="#409fb5"/><rect width="12" height="10" transform="translate(1340 2413)" fill="#409fb5"/><rect width="12" height="12" transform="translate(1340 2423)" fill="#409fb5"/><rect width="12" height="10" transform="translate(1340 2446)" fill="#409fb5"/><rect width="12" height="11" transform="translate(1340 2468)" fill="#409fb5"/><rect width="12" height="10" transform="translate(1340 2479)" fill="#409fb5"/><rect width="12" height="12" transform="translate(1340 2489)" fill="#409fb5"/><rect width="12" height="12" transform="translate(1340 2534)" fill="#409fb5"/><rect width="12" height="9" transform="translate(1340 2546)" fill="#409fb5"/><rect width="12" height="12" transform="translate(1340 2567)" fill="#409fb5"/><rect width="12" height="10" transform="translate(1340 2579)" fill="#409fb5"/><rect width="9" height="12" transform="translate(1352 2314)" fill="#409fb5"/><rect width="9" height="9" transform="translate(1352 2326)" fill="#409fb5"/><rect width="9" height="12" transform="translate(1352 2335)" fill="#409fb5"/><rect width="9" height="12" transform="translate(1352 2347)" fill="#409fb5"/><rect width="9" height="10" transform="translate(1352 2359)" fill="#409fb5"/><rect width="9" height="11" transform="translate(1352 2369)" fill="#409fb5"/><rect width="9" height="12" transform="translate(1352 2380)" fill="#409fb5"/><rect width="9" height="11" transform="translate(1352 2402)" fill="#409fb5"/><rect width="9" height="11" transform="translate(1352 2468)" fill="#409fb5"/><rect width="9" height="10" transform="translate(1352 2479)" fill="#409fb5"/><rect width="9" height="12" transform="translate(1352 2489)" fill="#409fb5"/><rect width="9" height="9" transform="translate(1352 2513)" fill="#409fb5"/><rect width="9" height="12" transform="translate(1352 2534)" fill="#409fb5"/><rect width="9" height="9" transform="translate(1352 2546)" fill="#409fb5"/><rect width="9" height="12" transform="translate(1352 2567)" fill="#409fb5"/><rect width="9" height="10" transform="translate(1352 2579)" fill="#409fb5"/><rect width="12" height="12" transform="translate(1361 2314)" fill="#409fb5"/><rect width="12" height="12" transform="translate(1361 2380)" fill="#409fb5"/><rect width="12" height="11" transform="translate(1361 2402)" fill="#409fb5"/><rect width="12" height="10" transform="translate(1361 2413)" fill="#409fb5"/><rect width="12" height="12" transform="translate(1361 2423)" fill="#409fb5"/><rect width="12" height="10" transform="translate(1361 2446)" fill="#409fb5"/><rect width="12" height="12" transform="translate(1361 2456)" fill="#409fb5"/><rect width="12" height="12" transform="translate(1361 2489)" fill="#409fb5"/><rect width="12" height="12" transform="translate(1361 2534)" fill="#409fb5"/><rect width="12" height="9" transform="translate(1361 2546)" fill="#409fb5"/><rect width="12" height="10" transform="translate(1361 2579)" fill="#409fb5"/><rect width="12" height="12" transform="translate(1373 2314)" fill="#409fb5"/><rect width="12" height="12" transform="translate(1373 2335)" fill="#409fb5"/><rect width="12" height="12" transform="translate(1373 2347)" fill="#409fb5"/><rect width="12" height="10" transform="translate(1373 2359)" fill="#409fb5"/><rect width="12" height="12" transform="translate(1373 2380)" fill="#409fb5"/><rect width="12" height="11" transform="translate(1373 2402)" fill="#409fb5"/><rect width="12" height="10" transform="translate(1373 2413)" fill="#409fb5"/><rect width="12" height="12" transform="translate(1373 2423)" fill="#409fb5"/><rect width="12" height="11" transform="translate(1373 2435)" fill="#409fb5"/><rect width="12" height="10" transform="translate(1373 2446)" fill="#409fb5"/><rect width="12" height="12" transform="translate(1373 2456)" fill="#409fb5"/><rect width="12" height="12" transform="translate(1373 2489)" fill="#409fb5"/><rect width="12" height="12" transform="translate(1373 2501)" fill="#409fb5"/><rect width="12" height="9" transform="translate(1373 2513)" fill="#409fb5"/><rect width="12" height="12" transform="translate(1373 2522)" fill="#409fb5"/><rect width="12" height="12" transform="translate(1373 2534)" fill="#409fb5"/><rect width="12" height="9" transform="translate(1373 2546)" fill="#409fb5"/><rect width="9" height="12" transform="translate(1385 2314)" fill="#409fb5"/><rect width="9" height="12" transform="translate(1385 2335)" fill="#409fb5"/><rect width="9" height="12" transform="translate(1385 2347)" fill="#409fb5"/><rect width="9" height="10" transform="translate(1385 2359)" fill="#409fb5"/><rect width="9" height="12" transform="translate(1385 2380)" fill="#409fb5"/><rect width="9" height="12" transform="translate(1385 2423)" fill="#409fb5"/><rect width="9" height="11" transform="translate(1385 2468)" fill="#409fb5"/><rect width="9" height="10" transform="translate(1385 2479)" fill="#409fb5"/><rect width="9" height="12" transform="translate(1385 2489)" fill="#409fb5"/><rect width="9" height="12" transform="translate(1385 2522)" fill="#409fb5"/><rect width="9" height="12" transform="translate(1385 2534)" fill="#409fb5"/><rect width="9" height="9" transform="translate(1385 2546)" fill="#409fb5"/><rect width="9" height="12" transform="translate(1385 2555)" fill="#409fb5"/><rect width="12" height="12" transform="translate(1394 2314)" fill="#409fb5"/><rect width="12" height="12" transform="translate(1394 2335)" fill="#409fb5"/><rect width="12" height="12" transform="translate(1394 2347)" fill="#409fb5"/><rect width="12" height="10" transform="translate(1394 2359)" fill="#409fb5"/><rect width="12" height="12" transform="translate(1394 2380)" fill="#409fb5"/><rect width="12" height="11" transform="translate(1394 2402)" fill="#409fb5"/><rect width="12" height="10" transform="translate(1394 2413)" fill="#409fb5"/><rect width="12" height="10" transform="translate(1394 2446)" fill="#409fb5"/><rect width="12" height="11" transform="translate(1394 2468)" fill="#409fb5"/><rect width="12" height="10" transform="translate(1394 2479)" fill="#409fb5"/><rect width="12" height="12" transform="translate(1394 2501)" fill="#409fb5"/><rect width="12" height="12" transform="translate(1394 2534)" fill="#409fb5"/><rect width="12" height="10" transform="translate(1394 2579)" fill="#409fb5"/><rect width="12" height="12" transform="translate(1406 2314)" fill="#409fb5"/><rect width="12" height="12" transform="translate(1406 2380)" fill="#409fb5"/><rect width="12" height="11" transform="translate(1406 2402)" fill="#409fb5"/><rect width="12" height="12" transform="translate(1406 2423)" fill="#409fb5"/><rect width="12" height="12" transform="translate(1406 2456)" fill="#409fb5"/><rect width="12" height="11" transform="translate(1406 2468)" fill="#409fb5"/><rect width="12" height="10" transform="translate(1406 2479)" fill="#409fb5"/><rect width="12" height="12" transform="translate(1406 2489)" fill="#409fb5"/><rect width="12" height="12" transform="translate(1406 2501)" fill="#409fb5"/><rect width="12" height="12" transform="translate(1406 2534)" fill="#409fb5"/><rect width="12" height="9" transform="translate(1406 2546)" fill="#409fb5"/><rect width="12" height="12" transform="translate(1406 2567)" fill="#409fb5"/><rect width="10" height="12" transform="translate(1418 2314)" fill="#409fb5"/><rect width="10" height="9" transform="translate(1418 2326)" fill="#409fb5"/><rect width="10" height="12" transform="translate(1418 2335)" fill="#409fb5"/><rect width="10" height="12" transform="translate(1418 2347)" fill="#409fb5"/><rect width="10" height="10" transform="translate(1418 2359)" fill="#409fb5"/><rect width="10" height="11" transform="translate(1418 2369)" fill="#409fb5"/><rect width="10" height="12" transform="translate(1418 2380)" fill="#409fb5"/><rect width="10" height="11" transform="translate(1418 2402)" fill="#409fb5"/><rect width="10" height="11" transform="translate(1418 2435)" fill="#409fb5"/><rect width="10" height="12" transform="translate(1418 2456)" fill="#409fb5"/><rect width="10" height="12" transform="translate(1418 2489)" fill="#409fb5"/><rect width="10" height="9" transform="translate(1418 2513)" fill="#409fb5"/><rect width="10" height="12" transform="translate(1418 2522)" fill="#409fb5"/><rect width="10" height="12" transform="translate(1418 2567)" fill="#409fb5"/><rect width="10" height="10" transform="translate(1418 2579)" fill="#409fb5"/></g></svg>