<svg xmlns="http://www.w3.org/2000/svg" width="208" height="46" viewBox="0 0 208 46"><g transform="translate(-38 -161)"><rect width="208" height="46" rx="5" transform="translate(38 161)" fill="#e1e828"/><text transform="translate(155 193)" fill="#2c2c2c" font-size="21" font-family="NotoSansJP-Bold, Noto Sans JP Bold" font-weight="700"><tspan x="-52.5" y="0">鋭意製作中</tspan></text><path d="M9.815,23.6c0,.118-.136.213-.308.213-.2.018-.331-.077-.331-.213,0-.118.136-.213.308-.213C9.661,23.369,9.815,23.463,9.815,23.6Zm-1.84-.266c-.041.118.077.254.254.29A.277.277,0,0,0,8.6,23.5c.035-.118-.077-.254-.254-.308A.3.3,0,0,0,7.975,23.333Zm2.615-.1c-.172.041-.29.154-.272.29.018.118.172.2.349.154s.29-.154.272-.272S10.761,23.215,10.59,23.233ZM14.482.563A14.186,14.186,0,0,0,0,15,14.832,14.832,0,0,0,10.028,29.149c.757.136,1.023-.331,1.023-.716,0-.367-.018-2.39-.018-3.632,0,0-4.141.887-5.011-1.763,0,0-.674-1.722-1.645-2.165,0,0-1.355-.929.095-.911a3.123,3.123,0,0,1,2.284,1.526,3.127,3.127,0,0,0,4.313,1.236,3.288,3.288,0,0,1,.947-1.994c-3.307-.367-6.644-.846-6.644-6.537a4.484,4.484,0,0,1,1.4-3.485,5.589,5.589,0,0,1,.154-4.017C8.158,6.307,11,8.289,11,8.289a13.976,13.976,0,0,1,7.43,0s2.846-1.988,4.082-1.6a5.587,5.587,0,0,1,.154,4.017A4.6,4.6,0,0,1,24.2,14.193c0,5.709-3.485,6.164-6.792,6.537a3.5,3.5,0,0,1,1.006,2.745c0,1.994-.018,4.461-.018,4.946,0,.385.272.852,1.023.716A14.7,14.7,0,0,0,29.343,15C29.343,6.792,22.688.563,14.482.563ZM5.75,20.967c-.077.059-.059.2.041.308.095.095.231.136.308.059.077-.059.059-.2-.041-.308C5.963,20.931,5.827,20.89,5.75,20.967Zm-.639-.479c-.041.077.018.172.136.231a.176.176,0,0,0,.254-.041c.041-.077-.018-.172-.136-.231C5.247,20.411,5.153,20.428,5.111,20.488Zm1.917,2.106c-.095.077-.059.254.077.367.136.136.308.154.385.059.077-.077.041-.254-.077-.367C7.283,22.517,7.105,22.5,7.028,22.594Zm-.674-.87c-.095.059-.095.213,0,.349s.254.2.331.136a.27.27,0,0,0,0-.367C6.6,21.706,6.448,21.647,6.354,21.724Z" transform="translate(55 169.438)" fill="#2c2c2c"/></g></svg>