<svg xmlns="http://www.w3.org/2000/svg" width="79.93" height="79.93" viewBox="0 0 79.93 79.93"><g transform="translate(4 4)"><path d="M20.982,3H56.947A17.982,17.982,0,0,1,74.93,20.982V56.947A17.982,17.982,0,0,1,56.947,74.929H20.982A17.982,17.982,0,0,1,3,56.947V20.982A17.982,17.982,0,0,1,20.982,3Z" transform="translate(-3 -3)" fill="none" stroke="#409FB5" stroke-linecap="round" stroke-linejoin="round" stroke-width="8"/><path d="M40.681,24.211a14.386,14.386,0,1,1-12.12-12.12,14.386,14.386,0,0,1,12.12,12.12Z" transform="translate(9.669 9.488)" fill="none" stroke="#409FB5" stroke-linecap="round" stroke-linejoin="round" stroke-width="8"/><path d="M26.25,9.75h0" transform="translate(29.495 6.434)" fill="none" stroke="#409FB5" stroke-linecap="round" stroke-linejoin="round" stroke-width="8"/></g></svg>