<svg xmlns="http://www.w3.org/2000/svg" width="75.526" height="75.526" viewBox="0 0 75.526 75.526"><path d="M67.434,2.25H8.092A8.092,8.092,0,0,0,0,10.342V69.684a8.092,8.092,0,0,0,8.092,8.092H31.23V52.1H20.61V40.013H31.23V30.8c0-10.478,6.238-16.265,15.791-16.265a64.343,64.343,0,0,1,9.36.816V25.636H51.11c-5.194,0-6.814,3.223-6.814,6.529v7.848h11.6L54.037,52.1H44.3V77.776H67.434a8.092,8.092,0,0,0,8.092-8.092V10.342A8.092,8.092,0,0,0,67.434,2.25Z" transform="translate(0 -2.25)" fill="#26957b"/></svg>