<svg xmlns="http://www.w3.org/2000/svg" width="86.319" height="70.156" viewBox="0 0 86.319 70.156"><path d="M86.15,11.724a35.967,35.967,0,0,1-10.16,2.787,17.832,17.832,0,0,0,7.779-9.793A36.551,36.551,0,0,1,72.523,8.976a17.69,17.69,0,0,0-30.61,12.077A18.107,18.107,0,0,0,42.37,25.1,50.116,50.116,0,0,1,5.9,6.66a17.342,17.342,0,0,0-2.4,8.9,17.7,17.7,0,0,0,7.869,14.731,17.638,17.638,0,0,1-8.013-2.215V28.3a17.7,17.7,0,0,0,14.192,17.36,17.858,17.858,0,0,1-7.955.306A17.755,17.755,0,0,0,26.154,58.251,35.49,35.49,0,0,1,4.208,65.822,37.558,37.558,0,0,1,0,65.581a50.334,50.334,0,0,0,27.179,7.945c32.563,0,50.347-26.959,50.347-50.3,0-.752,0-1.511-.054-2.266A35.734,35.734,0,0,0,86.319,11.8l-.169-.072Z" transform="translate(0 -3.369)" fill="#26957b"/></svg>