<svg xmlns="http://www.w3.org/2000/svg" width="75.526" height="75.526" viewBox="0 0 75.526 75.526"><path d="M45.872,31.28V43.267a.533.533,0,0,1-.539.539H43.411a.558.558,0,0,1-.438-.219l-5.5-7.418v7.114a.533.533,0,0,1-.539.539H35.015a.533.533,0,0,1-.539-.539V31.3a.533.533,0,0,1,.539-.539H36.92a.509.509,0,0,1,.438.236l5.5,7.418V31.3a.533.533,0,0,1,.539-.539h1.922a.533.533,0,0,1,.556.523Zm-13.824-.539H30.126a.533.533,0,0,0-.539.539V43.267a.533.533,0,0,0,.539.539h1.922a.533.533,0,0,0,.539-.539V31.28A.543.543,0,0,0,32.048,30.741ZM27.412,40.789H22.169V31.28a.533.533,0,0,0-.539-.539H19.708a.533.533,0,0,0-.539.539V43.267a.5.5,0,0,0,.152.371.569.569,0,0,0,.371.152h7.7a.533.533,0,0,0,.539-.539V41.328a.54.54,0,0,0-.523-.539ZM55.987,30.741h-7.7a.543.543,0,0,0-.539.539V43.267a.543.543,0,0,0,.539.539h7.7a.533.533,0,0,0,.539-.539V41.345a.533.533,0,0,0-.539-.539H50.744V38.782h5.243a.533.533,0,0,0,.539-.539V36.3a.533.533,0,0,0-.539-.539H50.744V33.742h5.243a.533.533,0,0,0,.539-.539V31.28a.567.567,0,0,0-.539-.539ZM75.526,16.023v48.1A13.732,13.732,0,0,1,61.753,77.776h-48.1A13.742,13.742,0,0,1,0,64v-48.1A13.742,13.742,0,0,1,13.773,2.25h48.1A13.732,13.732,0,0,1,75.526,16.023ZM65.141,36.692c0-12.307-12.34-22.321-27.5-22.321s-27.5,10.014-27.5,22.321c0,11.025,9.778,20.264,23,22.017,3.22.691,2.849,1.871,2.124,6.2-.118.691-.556,2.714,2.377,1.484s15.83-9.323,21.613-15.965C63.236,46.048,65.141,41.615,65.141,36.692Z" transform="translate(0 -2.25)" fill="#409FB5"/></svg>