<?xml version="1.0" encoding="UTF-8" standalone="no"?>
<!DOCTYPE svg PUBLIC "-//W3C//DTD SVG 1.1//EN" "http://www.w3.org/Graphics/SVG/1.1/DTD/svg11.dtd">
<svg width="100%" height="100%" viewBox="0 0 650 565" version="1.1" xmlns="http://www.w3.org/2000/svg" xmlns:xlink="http://www.w3.org/1999/xlink" xml:space="preserve" xmlns:serif="http://www.serif.com/" style="fill-rule:evenodd;clip-rule:evenodd;stroke-linecap:round;stroke-linejoin:round;stroke-miterlimit:1.5;">
    <g transform="matrix(1,0,0,1,-252,-99)">
        <g transform="matrix(1.85188,-0.925942,1.55197,0.775987,-1138.99,675.374)">
            <rect x="512.608" y="426.099" width="262.752" height="125.258" style="fill:none;stroke:rgb(38,149,123);stroke-width:0.62px;"/>
        </g>
        <g transform="matrix(1.85188,-0.925942,1.55197,0.775987,-1333.38,512.487)">
            <rect x="512.608" y="426.099" width="262.752" height="125.258" style="fill:none;stroke:rgb(38,149,123);stroke-width:0.62px;"/>
        </g>
        <g transform="matrix(1.85188,-0.925942,-4.84487e-17,0.524423,-477.691,716.877)">
            <rect x="512.608" y="426.099" width="262.752" height="125.258" style="fill:none;stroke:rgb(38,149,123);stroke-width:1.12px;"/>
        </g>
        <g transform="matrix(0.739849,0.369924,3.26191e-17,0.524423,-102.05,-44.5926)">
            <rect x="512.608" y="426.099" width="262.752" height="125.258" style="fill:none;stroke:rgb(38,149,123);stroke-width:1.83px;"/>
        </g>
        <g transform="matrix(1.70805,-0.854026,-8.48059e-17,1.70805,-483.507,-373.3)">
            <path d="M612.276,796.449L612.276,795.64C613.037,795.566 613.569,795.442 613.869,795.268C614.17,795.094 614.395,794.683 614.543,794.035L615.375,794.035L615.375,802.39L614.25,802.39L614.25,796.449L612.276,796.449Z" style="fill:none;fill-rule:nonzero;stroke:rgb(38,149,123);stroke-width:0.41px;stroke-linecap:butt;stroke-miterlimit:2;"/>
            <path d="M621.768,799.42L621.768,795.617L619.078,799.42L621.768,799.42ZM621.785,802.39L621.785,800.339L618.106,800.339L618.106,799.308L621.949,793.976L622.84,793.976L622.84,799.42L624.076,799.42L624.076,800.339L622.84,800.339L622.84,802.39L621.785,802.39Z" style="fill:none;fill-rule:nonzero;stroke:rgb(38,149,123);stroke-width:0.41px;stroke-linecap:butt;stroke-miterlimit:2;"/>
            <path d="M627.721,794C628.807,794 629.592,794.447 630.076,795.341C630.451,796.033 630.639,796.98 630.639,798.183C630.639,799.324 630.469,800.267 630.129,801.013C629.637,802.084 628.832,802.619 627.715,802.619C626.707,802.619 625.957,802.181 625.465,801.306C625.055,800.576 624.85,799.595 624.85,798.365C624.85,797.412 624.973,796.593 625.219,795.91C625.68,794.636 626.514,794 627.721,794ZM627.709,801.658C628.256,801.658 628.692,801.416 629.016,800.931C629.34,800.447 629.502,799.545 629.502,798.224C629.502,797.271 629.385,796.487 629.151,795.872C628.916,795.256 628.461,794.949 627.785,794.949C627.164,794.949 626.71,795.241 626.423,795.825C626.136,796.409 625.992,797.269 625.992,798.406C625.992,799.261 626.084,799.949 626.268,800.468C626.549,801.261 627.03,801.658 627.709,801.658Z" style="fill:none;fill-rule:nonzero;stroke:rgb(38,149,123);stroke-width:0.41px;stroke-linecap:butt;stroke-miterlimit:2;"/>
            <path d="M634.342,795.933C635.049,795.933 635.624,796.105 636.068,796.449C636.511,796.793 636.778,797.384 636.867,798.224L635.842,798.224C635.78,797.837 635.637,797.516 635.414,797.26C635.192,797.004 634.834,796.877 634.342,796.877C633.67,796.877 633.19,797.205 632.901,797.861C632.713,798.287 632.619,798.812 632.619,799.437C632.619,800.066 632.752,800.595 633.018,801.025C633.283,801.455 633.701,801.67 634.272,801.67C634.709,801.67 635.056,801.536 635.312,801.268C635.568,801.001 635.744,800.634 635.842,800.17L636.867,800.17C636.75,801.002 636.457,801.61 635.989,801.995C635.52,802.379 634.92,802.572 634.19,802.572C633.369,802.572 632.715,802.272 632.227,801.672C631.739,801.073 631.494,800.324 631.494,799.425C631.494,798.324 631.762,797.466 632.297,796.853C632.832,796.24 633.514,795.933 634.342,795.933Z" style="fill:none;fill-rule:nonzero;stroke:rgb(38,149,123);stroke-width:0.41px;stroke-linecap:butt;stroke-miterlimit:2;"/>
            <path d="M637.922,796.115L638.965,796.115L638.965,797.005C639.215,796.697 639.442,796.472 639.645,796.332C639.992,796.093 640.387,795.974 640.828,795.974C641.328,795.974 641.731,796.097 642.035,796.343C642.207,796.484 642.364,796.691 642.504,796.964C642.739,796.628 643.014,796.379 643.33,796.217C643.647,796.055 644.002,795.974 644.397,795.974C645.24,795.974 645.815,796.279 646.119,796.888C646.283,797.216 646.365,797.658 646.365,798.212L646.365,802.39L645.27,802.39L645.27,798.031C645.27,797.613 645.165,797.326 644.956,797.17C644.747,797.013 644.492,796.935 644.192,796.935C643.778,796.935 643.421,797.074 643.122,797.351C642.823,797.628 642.674,798.091 642.674,798.74L642.674,802.39L641.602,802.39L641.602,798.295C641.602,797.869 641.551,797.558 641.449,797.363C641.289,797.07 640.99,796.923 640.553,796.923C640.155,796.923 639.792,797.078 639.466,797.386C639.14,797.695 638.977,798.253 638.977,799.062L638.977,802.39L637.922,802.39L637.922,796.115Z" style="fill:none;fill-rule:nonzero;stroke:rgb(38,149,123);stroke-width:0.41px;stroke-linecap:butt;stroke-miterlimit:2;"/>
        </g>
        <g transform="matrix(1.70805,0.854026,-1.70805,0.854026,889.232,-648.793)">
            <path d="M611.502,802.39C611.541,801.668 611.691,801.039 611.95,800.503C612.21,799.968 612.717,799.482 613.471,799.045L614.596,798.394C615.1,798.101 615.453,797.851 615.656,797.644C615.977,797.32 616.137,796.949 616.137,796.531C616.137,796.043 615.99,795.655 615.697,795.368C615.405,795.081 615.014,794.937 614.526,794.937C613.803,794.937 613.303,795.211 613.026,795.757C612.877,796.05 612.795,796.457 612.78,796.976L611.707,796.976C611.719,796.246 611.854,795.65 612.112,795.189C612.569,794.377 613.375,793.97 614.531,793.97C615.492,793.97 616.195,794.23 616.638,794.75C617.081,795.269 617.303,795.847 617.303,796.484C617.303,797.156 617.067,797.73 616.594,798.207C616.321,798.484 615.83,798.82 615.123,799.214L614.321,799.66C613.938,799.871 613.637,800.072 613.418,800.263C613.028,800.603 612.781,800.98 612.68,801.394L617.262,801.394L617.262,802.39L611.502,802.39Z" style="fill:none;fill-rule:nonzero;stroke:rgb(38,149,123);stroke-width:0.46px;stroke-linecap:butt;stroke-miterlimit:2;"/>
            <path d="M620.918,802.619C619.926,802.619 619.206,802.346 618.759,801.801C618.312,801.256 618.088,800.593 618.088,799.812L619.19,799.812C619.237,800.355 619.338,800.75 619.494,800.996C619.768,801.437 620.262,801.658 620.977,801.658C621.531,801.658 621.977,801.509 622.313,801.212C622.649,800.916 622.817,800.533 622.817,800.064C622.817,799.486 622.64,799.082 622.286,798.851C621.933,798.621 621.442,798.505 620.813,798.505C620.742,798.505 620.671,798.506 620.599,798.508C620.527,798.51 620.453,798.513 620.379,798.517L620.379,797.586C620.489,797.597 620.58,797.605 620.655,797.609C620.729,797.613 620.809,797.615 620.895,797.615C621.289,797.615 621.614,797.552 621.867,797.427C622.313,797.209 622.535,796.818 622.535,796.255C622.535,795.837 622.387,795.515 622.09,795.289C621.793,795.062 621.447,794.949 621.053,794.949C620.35,794.949 619.864,795.183 619.594,795.652C619.446,795.91 619.362,796.277 619.342,796.753L618.299,796.753C618.299,796.128 618.424,795.597 618.674,795.16C619.104,794.378 619.86,793.988 620.942,793.988C621.797,793.988 622.459,794.178 622.928,794.559C623.397,794.94 623.631,795.492 623.631,796.214C623.631,796.73 623.492,797.148 623.215,797.468C623.043,797.668 622.821,797.824 622.547,797.937C622.989,798.058 623.333,798.292 623.581,798.637C623.829,798.983 623.953,799.406 623.953,799.906C623.953,800.707 623.69,801.359 623.162,801.863C622.635,802.367 621.887,802.619 620.918,802.619Z" style="fill:none;fill-rule:nonzero;stroke:rgb(38,149,123);stroke-width:0.46px;stroke-linecap:butt;stroke-miterlimit:2;"/>
            <path d="M627.668,795.933C628.375,795.933 628.95,796.105 629.394,796.449C629.837,796.793 630.104,797.384 630.194,798.224L629.168,798.224C629.106,797.837 628.963,797.516 628.74,797.26C628.518,797.004 628.16,796.877 627.668,796.877C626.996,796.877 626.516,797.205 626.227,797.861C626.039,798.287 625.946,798.812 625.946,799.437C625.946,800.066 626.078,800.595 626.344,801.025C626.61,801.455 627.028,801.67 627.598,801.67C628.035,801.67 628.382,801.536 628.638,801.268C628.894,801.001 629.071,800.634 629.168,800.17L630.194,800.17C630.076,801.002 629.783,801.61 629.315,801.995C628.846,802.379 628.246,802.572 627.516,802.572C626.696,802.572 626.041,802.272 625.553,801.672C625.065,801.073 624.821,800.324 624.821,799.425C624.821,798.324 625.088,797.466 625.623,796.853C626.158,796.24 626.84,795.933 627.668,795.933Z" style="fill:none;fill-rule:nonzero;stroke:rgb(38,149,123);stroke-width:0.46px;stroke-linecap:butt;stroke-miterlimit:2;"/>
            <path d="M631.248,796.115L632.291,796.115L632.291,797.005C632.541,796.697 632.768,796.472 632.971,796.332C633.319,796.093 633.713,795.974 634.155,795.974C634.655,795.974 635.057,796.097 635.362,796.343C635.533,796.484 635.69,796.691 635.83,796.964C636.065,796.628 636.34,796.379 636.656,796.217C636.973,796.055 637.328,795.974 637.723,795.974C638.567,795.974 639.141,796.279 639.446,796.888C639.61,797.216 639.692,797.658 639.692,798.212L639.692,802.39L638.596,802.39L638.596,798.031C638.596,797.613 638.491,797.326 638.282,797.17C638.073,797.013 637.819,796.935 637.518,796.935C637.104,796.935 636.747,797.074 636.448,797.351C636.15,797.628 636,798.091 636,798.74L636,802.39L634.928,802.39L634.928,798.295C634.928,797.869 634.877,797.558 634.776,797.363C634.615,797.07 634.317,796.923 633.879,796.923C633.481,796.923 633.118,797.078 632.792,797.386C632.466,797.695 632.303,798.253 632.303,799.062L632.303,802.39L631.248,802.39L631.248,796.115Z" style="fill:none;fill-rule:nonzero;stroke:rgb(38,149,123);stroke-width:0.46px;stroke-linecap:butt;stroke-miterlimit:2;"/>
        </g>
        <g transform="matrix(1.90966,1.11022e-16,0,1.52773,-690.234,-724.338)">
            <path d="M614.244,802.619C613.252,802.619 612.532,802.346 612.085,801.801C611.638,801.256 611.414,800.593 611.414,799.812L612.516,799.812C612.563,800.355 612.664,800.75 612.821,800.996C613.094,801.437 613.588,801.658 614.303,801.658C614.858,801.658 615.303,801.509 615.639,801.212C615.975,800.916 616.143,800.533 616.143,800.064C616.143,799.486 615.966,799.082 615.613,798.851C615.259,798.621 614.768,798.505 614.139,798.505C614.069,798.505 613.997,798.506 613.925,798.508C613.853,798.51 613.78,798.513 613.705,798.517L613.705,797.586C613.815,797.597 613.906,797.605 613.981,797.609C614.055,797.613 614.135,797.615 614.221,797.615C614.615,797.615 614.94,797.552 615.194,797.427C615.639,797.209 615.862,796.818 615.862,796.255C615.862,795.837 615.713,795.515 615.416,795.289C615.119,795.062 614.774,794.949 614.379,794.949C613.676,794.949 613.19,795.183 612.92,795.652C612.772,795.91 612.688,796.277 612.668,796.753L611.625,796.753C611.625,796.128 611.75,795.597 612,795.16C612.43,794.378 613.186,793.988 614.268,793.988C615.123,793.988 615.785,794.178 616.254,794.559C616.723,794.94 616.957,795.492 616.957,796.214C616.957,796.73 616.819,797.148 616.541,797.468C616.369,797.668 616.147,797.824 615.873,797.937C616.315,798.058 616.659,798.292 616.907,798.637C617.155,798.983 617.28,799.406 617.28,799.906C617.28,800.707 617.016,801.359 616.489,801.863C615.961,802.367 615.213,802.619 614.244,802.619Z" style="fill:none;fill-rule:nonzero;stroke:rgb(38,149,123);stroke-width:0.32px;stroke-linecap:butt;stroke-miterlimit:2;"/>
            <rect x="618.826" y="801.113" width="1.225" height="1.277" style="fill:none;fill-rule:nonzero;stroke:rgb(38,149,123);stroke-width:0.32px;stroke-linecap:butt;stroke-miterlimit:2;"/>
            <path d="M621.51,802.39C621.549,801.668 621.698,801.039 621.958,800.503C622.218,799.968 622.725,799.482 623.479,799.045L624.604,798.394C625.108,798.101 625.461,797.851 625.664,797.644C625.985,797.32 626.145,796.949 626.145,796.531C626.145,796.043 625.998,795.655 625.705,795.368C625.412,795.081 625.022,794.937 624.533,794.937C623.811,794.937 623.311,795.211 623.033,795.757C622.885,796.05 622.803,796.457 622.787,796.976L621.715,796.976C621.727,796.246 621.862,795.65 622.119,795.189C622.576,794.377 623.383,793.97 624.539,793.97C625.5,793.97 626.202,794.23 626.646,794.75C627.089,795.269 627.311,795.847 627.311,796.484C627.311,797.156 627.074,797.73 626.602,798.207C626.328,798.484 625.838,798.82 625.131,799.214L624.328,799.66C623.946,799.871 623.645,800.072 623.426,800.263C623.035,800.603 622.789,800.98 622.688,801.394L627.27,801.394L627.27,802.39L621.51,802.39Z" style="fill:none;fill-rule:nonzero;stroke:rgb(38,149,123);stroke-width:0.32px;stroke-linecap:butt;stroke-miterlimit:2;"/>
            <path d="M631.002,795.933C631.709,795.933 632.284,796.105 632.728,796.449C633.171,796.793 633.438,797.384 633.528,798.224L632.502,798.224C632.44,797.837 632.297,797.516 632.074,797.26C631.852,797.004 631.494,796.877 631.002,796.877C630.33,796.877 629.85,797.205 629.561,797.861C629.373,798.287 629.28,798.812 629.28,799.437C629.28,800.066 629.412,800.595 629.678,801.025C629.944,801.455 630.362,801.67 630.932,801.67C631.369,801.67 631.716,801.536 631.972,801.268C632.228,801.001 632.405,800.634 632.502,800.17L633.528,800.17C633.41,801.002 633.117,801.61 632.649,801.995C632.18,802.379 631.58,802.572 630.85,802.572C630.03,802.572 629.375,802.272 628.887,801.672C628.399,801.073 628.155,800.324 628.155,799.425C628.155,798.324 628.422,797.466 628.957,796.853C629.492,796.24 630.174,795.933 631.002,795.933Z" style="fill:none;fill-rule:nonzero;stroke:rgb(38,149,123);stroke-width:0.32px;stroke-linecap:butt;stroke-miterlimit:2;"/>
            <path d="M634.582,796.115L635.625,796.115L635.625,797.005C635.875,796.697 636.102,796.472 636.305,796.332C636.653,796.093 637.047,795.974 637.489,795.974C637.989,795.974 638.391,796.097 638.696,796.343C638.867,796.484 639.024,796.691 639.164,796.964C639.399,796.628 639.674,796.379 639.99,796.217C640.307,796.055 640.662,795.974 641.057,795.974C641.901,795.974 642.475,796.279 642.78,796.888C642.944,797.216 643.026,797.658 643.026,798.212L643.026,802.39L641.93,802.39L641.93,798.031C641.93,797.613 641.825,797.326 641.616,797.17C641.407,797.013 641.153,796.935 640.852,796.935C640.438,796.935 640.081,797.074 639.782,797.351C639.484,797.628 639.334,798.091 639.334,798.74L639.334,802.39L638.262,802.39L638.262,798.295C638.262,797.869 638.211,797.558 638.11,797.363C637.949,797.07 637.651,796.923 637.213,796.923C636.815,796.923 636.452,797.078 636.126,797.386C635.8,797.695 635.637,798.253 635.637,799.062L635.637,802.39L634.582,802.39L634.582,796.115Z" style="fill:none;fill-rule:nonzero;stroke:rgb(38,149,123);stroke-width:0.32px;stroke-linecap:butt;stroke-miterlimit:2;"/>
        </g>
        <g transform="matrix(1,-0,-0,1,252,99)">
            <path d="M224.099,375.688L219.599,366.688L215.099,375.688L224.099,375.688Z" style="fill:rgb(38,149,123);"/>
            <path d="M224.099,423.376L219.599,432.376L215.099,423.376L224.099,423.376Z" style="fill:rgb(38,149,123);"/>
            <path d="M219.599,373.888L219.599,425.176" style="fill:none;stroke:rgb(38,149,123);stroke-width:1.5px;"/>
        </g>
        <g transform="matrix(1,0,0,1,103.884,26.8112)">
            <g transform="matrix(1,-0,-0,1,148.116,72.1888)">
                <path d="M621.108,272.596L627.146,264.546L617.083,264.546L621.108,272.596Z" style="fill:rgb(38,149,123);"/>
                <path d="M265.605,450.348L255.542,450.348L261.58,442.298L265.605,450.348Z" style="fill:rgb(38,149,123);"/>
                <path d="M620.706,267.766C575.569,290.335 307.119,424.56 261.982,447.128" style="fill:none;stroke:rgb(38,149,123);stroke-width:1.5px;"/>
            </g>
        </g>
        <g transform="matrix(1,0,0,1.18485,12.3384,-14.2269)">
            <g transform="matrix(1,-0,-0,0.843986,239.662,95.5619)">
                <path d="M229.661,432.376L219.599,432.376L225.636,440.426L229.661,432.376Z" style="fill:rgb(38,149,123);"/>
                <path d="M407.77,521.43L413.807,529.48L403.745,529.48L407.77,521.43Z" style="fill:rgb(38,149,123);"/>
                <path d="M226.039,435.596C255.568,450.361 377.839,511.496 407.367,526.26" style="fill:none;stroke:rgb(38,149,123);stroke-width:1.5px;"/>
            </g>
        </g>
    </g>
</svg>
