<svg xmlns="http://www.w3.org/2000/svg" width="82" height="107" viewBox="0 0 82 107"><g transform="translate(-314 -547)"><path d="M10,0H72A10,10,0,0,1,82,10V97a10,10,0,0,1-10,10H10A10,10,0,0,1,0,97V10A10,10,0,0,1,10,0Z" transform="translate(314 547)" fill="#e1e828"/><g transform="translate(-187 115)"><path d="M45.036-20,20-6.117V25.121L45.036,11.237Z" transform="translate(522.036 478.208)" fill="#606060"/><path d="M20-20,45.036-6.117V25.121L20,11.237Z" transform="translate(497 478.208)" fill="#a0a597"/><path d="M-18.944,12.336,6.44-1.423,31.027,12.2,6.134,28.041Z" transform="translate(535.988 446)" fill="#f2f2f2"/></g><text transform="translate(355 638)" fill="#707070" font-size="14" font-family="NotoSansJP-Bold, Noto Sans JP Bold" font-weight="700"><tspan x="-30.261" y="0">AR</tspan><tspan y="0">で</tspan><tspan y="0">試</tspan><tspan y="0">す</tspan></text></g></svg>