<svg xmlns="http://www.w3.org/2000/svg" width="236" height="87.734" viewBox="0 0 236 87.734"><g transform="translate(-142 -537.266)"><path d="M236,58.684V82.951H0Z" transform="translate(142 542.049)" fill="#26957b"/><path d="M80.42,62.519l2.306,4.646a2.594,2.594,0,0,1-1.17,3.476L70.944,75.973a5.188,5.188,0,0,1-7-2.44L53.767,51.874H31.124a5.188,5.188,0,0,1-5.135-4.454C20.5,8.966,20.811,11.354,20.749,10.375A10.375,10.375,0,1,1,32.643,20.638l.757,5.3H54.467a2.594,2.594,0,0,1,2.594,2.594v5.187a2.594,2.594,0,0,1-2.594,2.594H34.882l.741,5.187H57.061a5.187,5.187,0,0,1,4.695,2.981l9.323,19.843,5.865-2.974a2.594,2.594,0,0,1,3.477,1.17ZM50.473,57.061H46.5a18.156,18.156,0,1,1-27-18.343c-.6-4.209-1.109-7.758-1.538-10.753a28.53,28.53,0,1,0,36.68,37.981Z" transform="matrix(0.999, -0.035, 0.035, 0.999, 158.017, 540.163)" fill="#26957b"/></g></svg>